<svg xmlns="http://www.w3.org/2000/svg" width="512" height="512" style="" viewBox="0 0 512 512" data-svgdocument="" id="_zsIl_ABTuzK2JAPdRFos2" class="fl-svgdocument" x="0" y="0" xmlns:xlink="http://www.w3.org/1999/xlink"><defs id="_DBfwIkqlR-FheQaA1tmnl" transform="matrix(0.5162899075479436, 0, 0, 0.5162899075479436, -35.47604852125967, 157.26326804316858)"/><g id="_ZTFkjx-QQqNhkDSexVttr" transform="matrix(0.8549571063519867, 0, 0, 0.8549571063519867, 35.19541348368972, 34.15146679805471)"><path id="_oRkCuJU_4PLp3XCVpQj06" d="M497,430.182c0,37.271-30.215,67.486-67.486,67.486H70.486C33.215,497.668,3,467.452,3,430.182V71.153  C3,33.882,33.215,3.667,70.486,3.667h359.027C466.785,3.667,497,33.882,497,71.153V430.182z" fill="#d1d1d1" transform="matrix(0.21750418841838837, 0, 0, 0.3744056522846222, 14.469724655151367, 165.86415100097656)"/><path id="_gHd54k6XwAv5S7I08Jztv" fill="#1a1a1a" d="M59.625,82.72H31.551c-3.871,0-7.021-3.149-7.021-7.02V18.091c0-3.871,3.149-7.02,7.021-7.02h28.073    c3.87,0,7.02,3.149,7.02,7.02V75.7c0.001,1.875-0.729,3.638-2.054,4.964S61.501,82.72,59.625,82.72z M31.551,14.071    c-2.217,0-4.021,1.803-4.021,4.02V75.7c0,2.217,1.804,4.02,4.021,4.02h28.074c2.217,0,4.02-1.803,4.02-4.02l-0.001-57.609    c0-2.217-1.803-4.02-4.02-4.02H31.551z" transform="matrix(2.605860710144043, 0, 0, 2.605860710144043, -48.944889068603516, 137.28184509277344)"/><path id="_imzTyCGPwkN41fJvLG2Ml" fill="#6d6e71" d="M45.588,77.278c-2.873,0-5.211-2.337-5.211-5.211s2.338-5.211,5.211-5.211s5.211,2.337,5.211,5.211    S48.461,77.278,45.588,77.278z M45.588,69.856c-1.219,0-2.211,0.992-2.211,2.211s0.992,2.211,2.211,2.211s2.211-0.992,2.211-2.211    S46.807,69.856,45.588,69.856z" transform="matrix(2.605860710144043, 0, 0, 2.605860710144043, -48.54584503173828, 139.14620971679688)"/><path id="_S1JP4XlhEhTOCnK47M2EN" fill="#6d6e71" d="M47.468,21.01h-8.744c-0.828,0-1.5-0.671-1.5-1.5s0.672-1.5,1.5-1.5h8.744c0.828,0,1.5,0.671,1.5,1.5     S48.296,21.01,47.468,21.01z" transform="matrix(2.605860710144043, 0, 0, 2.605860710144043, -46.27070236206055, 137.4409637451172)"/><path id="_gxXHMQm0J_5EDdXbepULG" fill="#6d6e71" d="M52.453,21.01h-0.526c-0.828,0-1.5-0.671-1.5-1.5s0.672-1.5,1.5-1.5h0.526c0.828,0,1.5,0.671,1.5,1.5     S53.281,21.01,52.453,21.01z" transform="matrix(2.605860710144043, 0, 0, 2.605860710144043, -47.37306594848633, 137.4409637451172)"/><path id="_WHmX1XQrFSPVhLbRJqopJ" fill="#2fcc76" d="M43.042,51.733c-0.378,0-0.757-0.142-1.048-0.427c-0.593-0.579-0.604-1.528-0.025-2.121    c0.979-1.002,2.287-1.555,3.682-1.555c1.349,0,2.625,0.521,3.594,1.468c0.593,0.579,0.604,1.528,0.025,2.121    c-0.578,0.593-1.529,0.604-2.121,0.024c-0.825-0.805-2.227-0.789-3.033,0.038C43.821,51.582,43.432,51.733,43.042,51.733z" transform="matrix(2.605860710144043, 0, 0, 2.605860710144043, -48.975547790527344, 137.12881469726562)"/><path id="_S3hjCZ35tAw0h4eUCDMFY" fill="#2fcc76" d="M39.213,47.903c-0.382,0-0.764-0.145-1.056-0.435c-0.589-0.583-0.593-1.533-0.01-2.121    c2.001-2.02,4.665-3.131,7.503-3.131c2.801,0,5.439,1.086,7.431,3.06c0.589,0.583,0.593,1.533,0.01,2.121s-1.534,0.593-2.121,0.01    c-1.426-1.413-3.315-2.19-5.319-2.19c-2.031,0-3.938,0.796-5.372,2.243C39.985,47.754,39.599,47.903,39.213,47.903z" transform="matrix(2.605860710144043, 0, 0, 2.605860710144043, -48.117225646972656, 137.21485900878906)"/><path id="_gQGxrG29JRiSkJhs5FKL8" fill="#2fcc76" d="M35.146,43.837c-0.383,0-0.765-0.146-1.058-0.437c-0.588-0.584-0.59-1.534-0.006-2.121    c3.086-3.104,7.194-4.813,11.567-4.813c4.337,0,8.421,1.685,11.499,4.745c0.588,0.584,0.59,1.534,0.006,2.122    c-0.584,0.588-1.533,0.59-2.121,0.006c-2.512-2.498-5.845-3.873-9.384-3.873c-3.568,0-6.921,1.396-9.44,3.929    C35.917,43.689,35.532,43.837,35.146,43.837z" transform="matrix(2.605860710144043, 0, 0, 2.605860710144043, -47.94272232055664, 138.8592529296875)"/></g><path id="_UYnpcajkd_7-ouJFO89yY" fill="#2fcc76" transform="matrix(0.6173369740866119, 0, 0, 0.6173369740866119, 155.14631557352007, 252.39895402010558)" text="Company" text-anchor="start" font-size="100" letter-spacing="0" side="left" offset="0" dx="0" dy="0" space="preserve" href="" font-family="Montserrat" font-scale="contain" x="0" y="0" font-weight="700" data-fl-textpath="" d="M 41.8 1.2Q 31.1 1.2  22.45-3.45Q 13.8-8.1  8.85-16.35Q 3.9-24.6  3.9-35L 3.9-35Q 3.9-45.4  8.85-53.65Q 13.8-61.9  22.45-66.55Q 31.1-71.2  41.9-71.2L 41.9-71.2Q 51-71.2  58.35-68Q 65.7-64.8  70.7-58.8L 70.7-58.8L 60.3-49.2Q 53.2-57.4  42.7-57.4L 42.7-57.4Q 36.2-57.4  31.1-54.55Q 26-51.7  23.15-46.6Q 20.3-41.5  20.3-35L 20.3-35Q 20.3-28.5  23.15-23.4Q 26-18.3  31.1-15.45Q 36.2-12.6  42.7-12.6L 42.7-12.6Q 53.2-12.6  60.3-20.9L 60.3-20.9L 70.7-11.3Q 65.7-5.2  58.3-2Q 50.9 1.2  41.8 1.2L 41.8 1.2ZM 104.19999999999999 0.8Q 95.69999999999999 0.8  88.94999999999999-2.75Q 82.19999999999999-6.3  78.39999999999999-12.6Q 74.6-18.9  74.6-26.9L 74.6-26.9Q 74.6-34.9  78.39999999999999-41.2Q 82.19999999999999-47.5  88.94999999999999-51.05Q 95.69999999999999-54.6  104.19999999999999-54.6L 104.19999999999999-54.6Q 112.69999999999999-54.6  119.39999999999999-51.05Q 126.1-47.5  129.89999999999998-41.2Q 133.7-34.9  133.7-26.9L 133.7-26.9Q 133.7-18.9  129.89999999999998-12.6Q 126.1-6.3  119.39999999999999-2.75Q 112.69999999999999 0.8  104.19999999999999 0.8L 104.19999999999999 0.8ZM 104.19999999999999-12Q 110.19999999999999-12  114.04999999999998-16.05Q 117.89999999999999-20.1  117.89999999999999-26.9L 117.89999999999999-26.9Q 117.89999999999999-33.7  114.04999999999998-37.75Q 110.19999999999999-41.8  104.19999999999999-41.8L 104.19999999999999-41.8Q 98.19999999999999-41.8  94.29999999999998-37.75Q 90.39999999999999-33.7  90.39999999999999-26.9L 90.39999999999999-26.9Q 90.39999999999999-20.1  94.29999999999998-16.05Q 98.19999999999999-12  104.19999999999999-12L 104.19999999999999-12ZM 212.99999999999997-54.6Q 223.09999999999997-54.6  229.04999999999998-48.65Q 234.99999999999997-42.7  234.99999999999997-30.8L 234.99999999999997-30.8L 234.99999999999997 0L 219.39999999999998 0L 219.39999999999998-28.4Q 219.39999999999998-34.8  216.74999999999997-37.95Q 214.09999999999997-41.1  209.2-41.1L 209.2-41.1Q 203.7-41.1  200.49999999999997-37.55Q 197.29999999999998-34  197.29999999999998-27L 197.29999999999998-27L 197.29999999999998 0L 181.7 0L 181.7-28.4Q 181.7-41.1  171.49999999999997-41.1L 171.49999999999997-41.1Q 166.09999999999997-41.1  162.89999999999998-37.55Q 159.7-34  159.7-27L 159.7-27L 159.7 0L 144.09999999999997 0L 144.09999999999997-53.8L 158.99999999999997-53.8L 158.99999999999997-47.6Q 161.99999999999997-51  166.34999999999997-52.8Q 170.7-54.6  175.89999999999998-54.6L 175.89999999999998-54.6Q 181.59999999999997-54.6  186.2-52.35Q 190.79999999999998-50.1  193.59999999999997-45.8L 193.59999999999997-45.8Q 196.89999999999998-50  201.95-52.3Q 206.99999999999997-54.6  212.99999999999997-54.6L 212.99999999999997-54.6ZM 280.79999999999995-54.6Q 288.29999999999995-54.6  294.44999999999993-51.15Q 300.59999999999997-47.7  304.09999999999997-41.45Q 307.59999999999997-35.2  307.59999999999997-26.9L 307.59999999999997-26.9Q 307.59999999999997-18.6  304.09999999999997-12.35Q 300.59999999999997-6.1  294.44999999999993-2.65Q 288.29999999999995 0.8  280.79999999999995 0.8L 280.79999999999995 0.8Q 270.49999999999994 0.8  264.59999999999997-5.7L 264.59999999999997-5.7L 264.59999999999997 19.4L 248.99999999999994 19.4L 248.99999999999994-53.8L 263.9-53.8L 263.9-47.6Q 269.69999999999993-54.6  280.79999999999995-54.6L 280.79999999999995-54.6ZM 278.09999999999997-12Q 284.09999999999997-12  287.94999999999993-16.05Q 291.79999999999995-20.1  291.79999999999995-26.9L 291.79999999999995-26.9Q 291.79999999999995-33.7  287.94999999999993-37.75Q 284.09999999999997-41.8  278.09999999999997-41.8L 278.09999999999997-41.8Q 272.09999999999997-41.8  268.24999999999994-37.75Q 264.4-33.7  264.4-26.9L 264.4-26.9Q 264.4-20.1  268.24999999999994-16.05Q 272.09999999999997-12  278.09999999999997-12L 278.09999999999997-12ZM 338.79999999999995-54.6Q 351.29999999999995-54.6  358-48.65Q 364.7-42.7  364.7-30.7L 364.7-30.7L 364.7 0L 350.09999999999997 0L 350.09999999999997-6.7Q 345.7 0.8  333.7 0.8L 333.7 0.8Q 327.5 0.8  322.95-1.3Q 318.4-3.4  316-7.1Q 313.59999999999997-10.8  313.59999999999997-15.5L 313.59999999999997-15.5Q 313.59999999999997-23  319.25-27.3Q 324.9-31.6  336.7-31.6L 336.7-31.6L 349.09999999999997-31.6Q 349.09999999999997-36.7  346-39.45Q 342.9-42.2  336.7-42.2L 336.7-42.2Q 332.4-42.2  328.25-40.85Q 324.09999999999997-39.5  321.2-37.2L 321.2-37.2L 315.59999999999997-48.1Q 320-51.2  326.15-52.9Q 332.29999999999995-54.6  338.79999999999995-54.6L 338.79999999999995-54.6ZM 337.59999999999997-9.7Q 341.59999999999997-9.7  344.7-11.55Q 347.79999999999995-13.4  349.09999999999997-17L 349.09999999999997-17L 349.09999999999997-22.5L 338.4-22.5Q 328.79999999999995-22.5  328.79999999999995-16.2L 328.79999999999995-16.2Q 328.79999999999995-13.2  331.15-11.45Q 333.5-9.7  337.59999999999997-9.7L 337.59999999999997-9.7ZM 411.49999999999994-54.6Q 421.49999999999994-54.6  427.65-48.6Q 433.79999999999995-42.6  433.79999999999995-30.8L 433.79999999999995-30.8L 433.79999999999995 0L 418.2 0L 418.2-28.4Q 418.2-34.8  415.4-37.95Q 412.59999999999997-41.1  407.29999999999995-41.1L 407.29999999999995-41.1Q 401.4-41.1  397.9-37.45Q 394.4-33.8  394.4-26.6L 394.4-26.6L 394.4 0L 378.79999999999995 0L 378.79999999999995-53.8L 393.7-53.8L 393.7-47.5Q 396.79999999999995-50.9  401.4-52.75Q 405.99999999999994-54.6  411.49999999999994-54.6L 411.49999999999994-54.6ZM 485.3-53.8L 500.3-53.8L 476 3.3Q 472.3 12.6  466.84999999999997 16.4Q 461.4 20.2  453.7 20.2L 453.7 20.2Q 449.5 20.2  445.4 18.9Q 441.3 17.6 438.7 15.3L 438.7 15.3L 444.4 4.2Q 446.2 5.8  448.55 6.7Q 450.9 7.6  453.2 7.6L 453.2 7.6Q 456.4 7.6  458.4 6.05Q 460.4 4.5  462 0.9L 462 0.9L 462.2 0.4L 438.9-53.8L 455-53.8L 470.09999999999997-17.3L 485.3-53.8Z"/><path id="_Sp7DVg5UpzZtz_vNJzk1t" fill="#2fcc76" transform="matrix(0.6173369740866119, 0, 0, 0.6173369740866119, 156.74058045230362, 306.3705869788919)" text="Name" text-anchor="start" font-size="100" letter-spacing="0" side="left" offset="0" dx="0" dy="0" space="preserve" href="" font-family="Montserrat" font-scale="contain" x="0" y="0" font-weight="700" data-fl-textpath="" d="M 56.5-70L 72.5-70L 72.5 0L 59.2 0L 24.3-42.5L 24.3 0L 8.3 0L 8.3-70L 21.7-70L 56.5-27.5L 56.5-70ZM 109.70000000000002-54.6Q 122.20000000000002-54.6  128.9-48.65Q 135.60000000000002-42.7  135.60000000000002-30.7L 135.60000000000002-30.7L 135.60000000000002 0L 121.00000000000001 0L 121.00000000000001-6.7Q 116.60000000000001 0.8  104.60000000000001 0.8L 104.60000000000001 0.8Q 98.4 0.8  93.85000000000001-1.3Q 89.30000000000001-3.4  86.9-7.1Q 84.50000000000001-10.8  84.50000000000001-15.5L 84.50000000000001-15.5Q 84.50000000000001-23  90.15-27.3Q 95.80000000000001-31.6  107.60000000000001-31.6L 107.60000000000001-31.6L 120.00000000000001-31.6Q 120.00000000000001-36.7  116.9-39.45Q 113.80000000000001-42.2  107.60000000000001-42.2L 107.60000000000001-42.2Q 103.30000000000001-42.2  99.15-40.85Q 95.00000000000001-39.5  92.10000000000001-37.2L 92.10000000000001-37.2L 86.50000000000001-48.1Q 90.9-51.2  97.05000000000001-52.9Q 103.20000000000002-54.6  109.70000000000002-54.6L 109.70000000000002-54.6ZM 108.50000000000001-9.7Q 112.50000000000001-9.7  115.60000000000001-11.55Q 118.70000000000002-13.4  120.00000000000001-17L 120.00000000000001-17L 120.00000000000001-22.5L 109.30000000000001-22.5Q 99.70000000000002-22.5  99.70000000000002-16.2L 99.70000000000002-16.2Q 99.70000000000002-13.2  102.05000000000001-11.45Q 104.4-9.7  108.50000000000001-9.7L 108.50000000000001-9.7ZM 218.6-54.6Q 228.7-54.6  234.65-48.65Q 240.6-42.7  240.6-30.8L 240.6-30.8L 240.6 0L 225 0L 225-28.4Q 225-34.8  222.35-37.95Q 219.7-41.1  214.8-41.1L 214.8-41.1Q 209.3-41.1  206.1-37.55Q 202.9-34  202.9-27L 202.9-27L 202.9 0L 187.3 0L 187.3-28.4Q 187.3-41.1  177.1-41.1L 177.1-41.1Q 171.7-41.1  168.5-37.55Q 165.3-34  165.3-27L 165.3-27L 165.3 0L 149.7 0L 149.7-53.8L 164.6-53.8L 164.6-47.6Q 167.6-51  171.95-52.8Q 176.3-54.6  181.5-54.6L 181.5-54.6Q 187.2-54.6  191.8-52.35Q 196.4-50.1  199.2-45.8L 199.2-45.8Q 202.5-50  207.55-52.3Q 212.6-54.6  218.6-54.6L 218.6-54.6ZM 307.9-26.7Q 307.9-26.4  307.6-22.5L 307.6-22.5L 266.9-22.5Q 268-17.5  272.1-14.6Q 276.2-11.7  282.3-11.7L 282.3-11.7Q 286.5-11.7  289.75-12.95Q 293-14.2  295.8-16.9L 295.8-16.9L 304.1-7.9Q 296.5 0.8  281.9 0.8L 281.9 0.8Q 272.8 0.8  265.8-2.75Q 258.8-6.3  255-12.6Q 251.2-18.9  251.2-26.9L 251.2-26.9Q 251.2-34.8  254.95-41.15Q 258.7-47.5  265.25-51.05Q 271.8-54.6  279.9-54.6L 279.9-54.6Q 287.8-54.6  294.2-51.2Q 300.6-47.8  304.25-41.45Q 307.9-35.1  307.9-26.7L 307.9-26.7ZM 280-42.8Q 274.7-42.8  271.1-39.8Q 267.5-36.8  266.7-31.6L 266.7-31.6L 293.2-31.6Q 292.4-36.7  288.8-39.75Q 285.2-42.8  280-42.8L 280-42.8Z"/></svg>